<svg xmlns="http://www.w3.org/2000/svg" xmlns:xlink="http://www.w3.org/1999/xlink" width="1777.69" height="657.73" viewBox="0 0 1777.69 657.73"><defs><style>.cls-1,.cls-10,.cls-16,.cls-17,.cls-19,.cls-29,.cls-36,.cls-40,.cls-46,.cls-56,.cls-60{fill:none;}.cls-2{clip-path:url(#clip-path);}.cls-3{fill:#fad2d0;}.cls-4{fill:#ee7171;}.cls-5{fill:#f5a8a3;}.cls-6{fill:#97d1cd;}.cls-7{fill:#4cb4ab;}.cls-8{fill:#fce1d5;}.cls-9{fill:#e2939e;}.cls-10{stroke:#621313;}.cls-10,.cls-16,.cls-17,.cls-19,.cls-29,.cls-36,.cls-40,.cls-46,.cls-56,.cls-60{stroke-miterlimit:10;}.cls-11{fill:#c25e5d;}.cls-12{fill:#e6b6d0;}.cls-13{fill:#f18c85;}.cls-14{fill:#fff;}.cls-15{fill:#d36968;}.cls-16{stroke:#6abab3;}.cls-17{stroke:#4cb4ab;}.cls-18{fill:#f1b98a;}.cls-19{stroke:#4b262f;}.cls-20{fill:#4b262f;}.cls-21{fill:#0f9083;}.cls-22{clip-path:url(#clip-path-2);}.cls-23{fill:#afdcdf;}.cls-24{fill:#add291;}.cls-25{fill:#26b5b8;}.cls-26{fill:#86c490;}.cls-27{fill:#fed79b;}.cls-28{fill:#8dc295;}.cls-29{stroke:#4f3a17;}.cls-30{fill:#8bc15c;}.cls-31{fill:#46b06b;}.cls-32{fill:#657e40;}.cls-33{fill:#bbd36a;}.cls-34{fill:#a7ce7f;}.cls-35{fill:#009149;}.cls-36{stroke:#114d3c;}.cls-37{fill:#93604a;}.cls-38{fill:#114d3c;}.cls-39{fill:#ed6961;}.cls-40{stroke:#f9eabf;}.cls-40,.cls-60{stroke-width:0.75px;}.cls-41{fill:#fab548;}.cls-42{fill:#e94943;}.cls-43{clip-path:url(#clip-path-3);}.cls-44{fill:#c8e7f6;}.cls-45{fill:#aad5e4;}.cls-46,.cls-60{stroke:#fff;}.cls-47{fill:#56c4f0;}.cls-48{fill:#5b8ac8;}.cls-49{fill:#c5e4f3;}.cls-50{fill:#def1fa;}.cls-51{fill:#c9e8f7;}.cls-52{fill:#b6d3f0;}.cls-53{fill:#a7dbf2;}.cls-54{fill:#ec665b;}.cls-55{fill:#0d87bb;}.cls-56{stroke:#133658;}.cls-57{fill:#133658;}.cls-58{fill:#3c4d9c;}.cls-59{fill:#0078ae;}.cls-61{font-size:12px;fill:#1d1d1b;font-family:MyriadPro-Regular, Myriad Pro;}.cls-62{clip-path:url(#clip-path-4);}.cls-63{fill:#f9eabf;}.cls-64{fill:#e5874b;}.cls-65{fill:#fdcd71;}.cls-66{fill:#fab741;}.cls-67{fill:#ffdfa6;}.cls-68{fill:#f49645;}.cls-69{fill:#fbbf57;}.cls-70{fill:#d25f3c;}.cls-71{fill:#f29064;}.cls-72{fill:#613b48;}.cls-73{fill:#3b1429;}.cls-74{fill:#76485d;}.cls-75{fill:#ec6533;}</style><clipPath id="clip-path" transform="translate(0.55)"><rect class="cls-1" x="895.75" width="425.2" height="637.8"/></clipPath><clipPath id="clip-path-2" transform="translate(0.55)"><rect class="cls-1" x="447.87" width="425.2" height="637.8"/></clipPath><clipPath id="clip-path-3" transform="translate(0.55)"><rect class="cls-1" width="425.2" height="637.8"/></clipPath><clipPath id="clip-path-4" transform="translate(0.55)"><rect class="cls-1" x="1343.62" width="425.2" height="637.8"/></clipPath></defs><g id="Layer_2" data-name="Layer 2"><g id="PRINT"><g class="cls-2"><rect class="cls-3" x="896.3" width="425.2" height="637.8"/><circle class="cls-4" cx="1108.35" cy="257.31" r="85" transform="translate(143.24 859.08) rotate(-45)"/><path class="cls-5" d="M895.75,219.8s34.75-1.74,89.72,13.55a592.48,592.48,0,0,0,277.67,9.36c20.86-4.33,40-6,56.22-1.77,0,25.24,3.56,62.41,0,65.48s-423.61,0-423.61,0Z" transform="translate(0.55)"/><rect class="cls-6" x="896.3" y="287.49" width="424.53" height="220.47"/><rect class="cls-7" x="896.3" y="377" width="424.53" height="71.83"/><path class="cls-8" d="M895.75,428.37s161.68-38.18,425.19,5.24V637.8H895.75Z" transform="translate(0.55)"/><path class="cls-9" d="M1247.34,549.57s-27-8.48-26.74-27.62,14.21-17.42,9.29-35.11-2.73-34,15.9-23.48,3.6,37.12,19.56,46.14,1.49,34.65,1.49,34.65Z" transform="translate(0.55)"/><line class="cls-10" x1="1238.73" y1="476.6" x2="1258.7" y2="548.39"/><line class="cls-10" x1="1231.58" y1="524.78" x2="1255.86" y2="538.2"/><line class="cls-10" x1="1262.48" y1="516.18" x2="1253.72" y2="531.7"/><line class="cls-10" x1="1237.15" y1="507.85" x2="1249.33" y2="514.73"/><line class="cls-10" x1="1251.16" y1="486.94" x2="1244.76" y2="498.28"/><line class="cls-10" x1="1235.37" y1="484.97" x2="1242.52" y2="489.01"/><line class="cls-10" x1="1246.78" y1="471.17" x2="1240.02" y2="483.14"/><path class="cls-11" d="M1284.52,545.12s-24.49-12.39-18.77-35.72-1.2-24.92-10.26-45.17,23.75-12.74,16.78-29.87,3.22-29.49,11.38-23.74,4.92,31.81,17.75,36.47,15.54,14.07,11.61,37.6,25.74,16.12,6.56,54.38Z" transform="translate(0.55)"/><line class="cls-10" x1="1280.51" y1="429.32" x2="1300.25" y2="543.74"/><line class="cls-10" x1="1264.39" y1="457.81" x2="1288.6" y2="474.9"/><line class="cls-10" x1="1307.01" y1="464.13" x2="1290.54" y2="487.47"/><line class="cls-10" x1="1273.16" y1="512.1" x2="1297.79" y2="529.48"/><line class="cls-10" x1="1308.51" y1="502.89" x2="1296.15" y2="520.39"/><path class="cls-12" d="M973.66,509c-8.16-16.2,16.81-58.07,13.21-65.2S969.7,431,961.72,455.15s-12.81,13.56-30.37,34.31,4.35,46.24,4.35,46.24l15,5C964.46,538.66,981.82,525.2,973.66,509Z" transform="translate(0.55)"/><line class="cls-10" x1="973.52" y1="451.27" x2="944.16" y2="540.16"/><line class="cls-10" x1="937.52" y1="499.92" x2="949.51" y2="523.73"/><line class="cls-10" x1="951.74" y1="481.34" x2="958.84" y2="495.46"/><line class="cls-10" x1="964.72" y1="508.9" x2="952.35" y2="515.13"/><path class="cls-13" d="M895.37,543.89s-20.69-20.56-8.8-43.6,0-28.74,13.84-48.94,8.6-41.68,28.83-39.71,8.91,36.66,12,51.67-9.94,32.1-.77,54.44-9.69,29.59-9.69,29.59Z" transform="translate(0.55)"/><line class="cls-10" x1="925.49" y1="428.08" x2="913.87" y2="547.4"/><line class="cls-10" x1="905.87" y1="460.69" x2="920.35" y2="478.29"/><line class="cls-10" x1="936.16" y1="445.24" x2="922.47" y2="456.5"/><line class="cls-10" x1="931.61" y1="491.98" x2="917.82" y2="503.32"/><line class="cls-10" x1="892.95" y1="508.87" x2="914.78" y2="535.41"/><path class="cls-5" d="M895.75,540.2s217.88-32.33,425.19,0v97.6H895.75Z" transform="translate(0.55)"/><path class="cls-14" d="M885.8,47.78h112s-7.94-20.46-30.87-10.23c-30-20.55-49.1-1.43-49.1-1.43S908.78,24.81,885.8,47.78Z" transform="translate(0.55)"/><path class="cls-14" d="M923.39,194.17h82s-8.82-18.92-31.75-9.46C949.84,175.84,923.39,194.17,923.39,194.17Z" transform="translate(0.55)"/><path class="cls-14" d="M1191.86,33.39h50s-5.87-9.64-22.19-4.82C1203.67,19.15,1191.86,33.39,1191.86,33.39Z" transform="translate(0.55)"/><path class="cls-14" d="M1251,21.14h50s-5.87-9.64-22.18-4.82C1262.76,6.9,1251,21.14,1251,21.14Z" transform="translate(0.55)"/><path class="cls-14" d="M991.56,209.62h50s-5.87-9.64-22.18-4.82C1003.36,195.38,991.56,209.62,991.56,209.62Z" transform="translate(0.55)"/><path class="cls-14" d="M1159.75,226h135.33s-14.63-24.26-39-12.13c-31.7-19.63-47.55,1.32-47.55,1.32S1186.57,206.55,1159.75,226Z" transform="translate(0.55)"/><path class="cls-13" d="M970.34,599.63c-13.29-27.37,18.77-39.88,23.46-12.51,18.38-9.7,13.3,17.2,13.3,17.2s14.85-16.42,24.24,0-22.89,33.48-22.89,33.48h-45.7C924.65,615.9,945.32,581.65,970.34,599.63Z" transform="translate(0.55)"/><line class="cls-10" x1="1002.73" y1="599.4" x2="998.67" y2="619.79"/><polyline class="cls-10" points="1017.09 607.31 988.02 627 981.51 588.5"/><line class="cls-10" x1="957.26" y1="607.75" x2="986.12" y2="615.8"/><path class="cls-15" d="M1197.82,607.35c-11.55-11.55,12.51-31.64,22.35-5.84,0-24.24,38.64-16.42,26.91,5.48,25,3.91,1.7,30.81,1.7,30.81h-54C1158.38,619.79,1181.4,597.4,1197.82,607.35Z" transform="translate(0.55)"/><polyline class="cls-10" points="1236.29 597.39 1219.65 628.1 1207.18 602.43"/><line class="cls-10" x1="1249.02" y1="615.25" x2="1227.97" y2="612.74"/><line class="cls-10" x1="1193.34" y1="615.25" x2="1213.41" y2="615.25"/><path class="cls-6" d="M901.44,637.8s-23.77-20.29-18.36-38.65,18.36-13,18.36-31.33,6.48-33.49,21.61-18.37-6.48,36.73,6.48,49.7-5.37,38.65-5.37,38.65Z" transform="translate(0.55)"/><line class="cls-10" x1="912.72" y1="558.42" x2="912.72" y2="637.8"/><line class="cls-10" x1="892.92" y1="602.92" x2="912.72" y2="622.36"/><line class="cls-10" x1="925" y1="602.92" x2="912.39" y2="615.52"/><line class="cls-10" x1="902.82" y1="588.1" x2="912.72" y2="598"/><line class="cls-10" x1="921.93" y1="571.72" x2="912.72" y2="580.92"/><line class="cls-10" x1="907.24" y1="565.58" x2="913.05" y2="571.39"/><line class="cls-10" x1="921.93" y1="555.35" x2="912.21" y2="565.07"/><path class="cls-15" d="M964.62,591.53c-6.15-13.12,15.19-38.69,3.94-42.75S946,559.38,929,589.56s-9.49,63.14-9.49,63.14l13.92,5C955.31,647.47,970.78,604.65,964.62,591.53Z" transform="translate(0.55)"/><line class="cls-10" x1="960.61" y1="562.58" x2="927.14" y2="655.25"/><line class="cls-10" x1="927.31" y1="611.01" x2="936.24" y2="630.05"/><line class="cls-10" x1="958.25" y1="605.14" x2="942.58" y2="612.5"/><line class="cls-10" x1="943.7" y1="577.68" x2="950.15" y2="591.42"/><path class="cls-6" d="M1266.72,652.35s-14-8.54-14-25.45c0-24-4.44-24.55-16.06-43.45s21.88-15.73,12.74-31.8-.66-29.66,8.18-25,9,30.9,22.36,33.84,17.24,11.92,16.42,35.76S1324,608.85,1310,649.29C1290.57,655.33,1266.72,652.35,1266.72,652.35Z" transform="translate(0.55)"/><line class="cls-10" x1="1256.4" y1="543.97" x2="1290.92" y2="654.84"/><line class="cls-10" x1="1244.14" y1="574.33" x2="1270.38" y2="588.11"/><line class="cls-10" x1="1287.23" y1="575.03" x2="1273.95" y2="600.32"/><line class="cls-10" x1="1259.93" y1="627.01" x2="1286.62" y2="641.02"/><line class="cls-10" x1="1293.77" y1="613.26" x2="1283.81" y2="632.23"/><path class="cls-7" d="M1321.55,602.77c-12.83-12.83-2.26-60.42-7.9-66.06s-20.33-6.78-20.33,18.67-7.9,16.9-18.07,42.11S1293.89,640,1293.89,640h15.8C1322.12,633.82,1334.38,615.6,1321.55,602.77Z" transform="translate(0.55)"/><line class="cls-10" x1="1303.34" y1="546.42" x2="1303.34" y2="640.03"/><line class="cls-10" x1="1284.42" y1="603.91" x2="1303.27" y2="622.76"/><line class="cls-10" x1="1292.09" y1="581.81" x2="1303.27" y2="592.99"/><line class="cls-10" x1="1313.06" y1="603.91" x2="1303.27" y2="613.7"/><line class="cls-16" x1="903.87" y1="355.75" x2="1058.29" y2="355.75"/><line class="cls-16" x1="964.95" y1="348.58" x2="1119.37" y2="348.58"/><line class="cls-16" x1="1080.66" y1="306.76" x2="1235.08" y2="306.76"/><line class="cls-16" x1="912.36" y1="296.9" x2="1066.78" y2="296.9"/><line class="cls-16" x1="1141.73" y1="299.59" x2="1296.15" y2="299.59"/><line class="cls-16" x1="1159.94" y1="329.63" x2="1314.36" y2="329.63"/></g><path class="cls-14" d="M1013.63,483l-5.18-36.51s17.92-9.81,43.15,0c-4.53,28.64-5.4,36.56-5.4,36.56Z" transform="translate(0.55)"/><line class="cls-17" x1="1012.04" y1="450.75" x2="1049.12" y2="450.75"/><line class="cls-17" x1="1010.77" y1="458.9" x2="1050.21" y2="458.9"/><line class="cls-17" x1="1011.92" y1="466.99" x2="1048.98" y2="466.99"/><line class="cls-17" x1="1013.17" y1="475.86" x2="1047.7" y2="475.86"/><line class="cls-17" x1="1009.61" y1="450.75" x2="1051.47" y2="450.75"/><path class="cls-17" d="M1019.9,450.75s-2.65-19.62,10.12-19.62,10.78,19.62,10.78,19.62" transform="translate(0.55)"/><path class="cls-18" d="M1129.67,368.31s1.28,1.82.52,7.29c.75,4.45,2.24,7.47-1,7-.64,4.71-2.86,6.84-11,5-6.5-1.44-7.37-11.75-3.24-18.93S1127.45,362.71,1129.67,368.31Z" transform="translate(0.55)"/><polygon class="cls-18" points="1114.88 382.69 1109.63 391.12 1116.12 396.34 1122.36 387.59 1114.88 382.69"/><path class="cls-14" d="M1098.94,525.71l5.18,2.81s7.89,3.5,6.23,10.27l-14.61-7.94Z" transform="translate(0.55)"/><path class="cls-18" d="M1077.94,421.7s-34.65,16.61-.09,36.45l42.3,21.63-21.21,45.93,5.45,2.88s28.2-34,32.6-52S1077.94,421.7,1077.94,421.7Z" transform="translate(0.55)"/><circle class="cls-19" cx="1036.67" cy="532.69" r="47.48" transform="translate(-92.77 247.1) rotate(-13.01)"/><circle class="cls-19" cx="1180.02" cy="532.69" r="47.48" transform="translate(-89.09 279.38) rotate(-13.01)"/><polygon class="cls-19" points="1105.48 532.69 1037.22 532.69 1074.1 470.19 1157.66 470.19 1180.58 532.69 1105.48 532.69"/><path class="cls-20" d="M1110.28,539.62,1095,531.51a.8.8,0,0,1-.33-1.07h0a.8.8,0,0,1,1.08-.33l15.24,8.1a.8.8,0,0,1,.33,1.08h0A.8.8,0,0,1,1110.28,539.62Z" transform="translate(0.55)"/><path class="cls-19" d="M1060.94,444.1l42.81,88.59,53.36-62.5-8.8-26.09s22.15-4.17,22.15,3.68-9.1,7.85-9.1,7.85" transform="translate(0.55)"/><path class="cls-20" d="M1071.64,449.67h-20.33a3.35,3.35,0,0,1-3.34-3.34h0a3.36,3.36,0,0,1,3.34-3.34h20.33a3.36,3.36,0,0,1,3.34,3.34h0A3.35,3.35,0,0,1,1071.64,449.67Z" transform="translate(0.55)"/><path class="cls-18" d="M1164.09,439.85s9.86,1.6,6.37,7.93a59.47,59.47,0,0,1-10.28-5.24Z" transform="translate(0.55)"/><path class="cls-18" d="M1071.76,415.25s31.08-39.06,46.21-22.73c13.66,14.74-29.53,36.16-29.53,36.16Z" transform="translate(0.55)"/><path class="cls-20" d="M1032.69,532.69a4,4,0,1,0,4-4A4,4,0,0,0,1032.69,532.69Z" transform="translate(0.55)"/><path class="cls-14" d="M1064.46,421.7s18.71-22.85,32.41-29.26c14.78,10.86,19.73,22.08,19.73,22.08s-16.28,12.86-25.61,14.72C1084.1,430.62,1064.46,421.7,1064.46,421.7Z" transform="translate(0.55)"/><path class="cls-20" d="M1176.05,532.69a4,4,0,1,0,4-4A4,4,0,0,0,1176.05,532.69Z" transform="translate(0.55)"/><path class="cls-18" d="M1122.65,427.33s-19.2-31-11.79-35.84,23.19,31.68,23.19,31.68l30,16.68-.92,3.14S1130.71,438.75,1122.65,427.33Z" transform="translate(0.55)"/><polyline class="cls-19" points="1116.68 549.29 1104.31 532.69 1097.81 532.69"/><path class="cls-14" d="M1110.3,542l6.19,1.15s8.49,1.55,8.46,8.53l-16.06-4.31Z" transform="translate(0.55)"/><path class="cls-18" d="M1071.76,415.25s-17.47,12.7-8,29.12c10.12,17.59,39.64,35,39.64,35L1110.3,542l6.19,1.15s10.83-55.78,4.84-76.74S1071.76,415.25,1071.76,415.25Z" transform="translate(0.55)"/><path class="cls-20" d="M1124.33,552.1,1107.55,548a.79.79,0,0,1-.59-1h0a.8.8,0,0,1,1-.59l16.78,4.06a.8.8,0,0,1,.59,1h0A.8.8,0,0,1,1124.33,552.1Z" transform="translate(0.55)"/><path class="cls-14" d="M1071.76,415.25s-27.06,14.92,0,43.77S1093,523,1093,523s27.77-11.55,35.09-37.74S1108.21,434.56,1071.76,415.25Z" transform="translate(0.55)"/><path class="cls-21" d="M1123.13,362.15s-10.69-3.07-17.26,10.29-34.11-14.89-42.27,5.84c-27.38,3.14-24.46,19.13-15.63,22.86-11.9,11.9,13.44,31.74,32.93,16.2,12.27,9.64,26.72,6.36,33.51-17.95,3.82-12.06,1.83-25.84,8.72-26.73,6.44,3.33,10.16-.4,10.16-.4S1133.17,362.15,1123.13,362.15Z" transform="translate(0.55)"/><polygon class="cls-19" points="1066.93 454.77 1004.93 454.77 1012.53 485.21 1063.07 485.21 1066.93 454.77"/><line class="cls-19" x1="1007.03" y1="463.16" x2="1065.87" y2="463.16"/><line class="cls-19" x1="1009.17" y1="473.6" x2="1064.78" y2="473.6"/><polygon class="cls-20" points="1011.51 481.1 1063.59 481.1 1063.07 485.21 1012.53 485.21 1011.51 481.1"/><line class="cls-19" x1="1016.64" y1="454.77" x2="1016.64" y2="483.15"/><line class="cls-19" x1="1030.58" y1="454.77" x2="1030.58" y2="483.15"/><line class="cls-19" x1="1044.52" y1="454.77" x2="1044.52" y2="483.15"/><line class="cls-19" x1="1058.46" y1="454.77" x2="1058.46" y2="483.15"/><g class="cls-22"><rect class="cls-23" x="448.43" width="425.2" height="637.8"/><rect class="cls-24" x="448.43" y="233.26" width="424.53" height="220.47"/><path class="cls-25" d="M546.69,224.44s53.07-35.32,84.2-35.32S692.18,220,692.18,220s50.79-45.61,96.45-45.61,82,50,82,50l.87,76.45L474.6,249.45S504,199.42,546.69,224.44Z" transform="translate(0.55)"/><path class="cls-24" d="M447.87,223.07s34.76-2,89.72,15.73a513.16,513.16,0,0,0,277.68,10.86c20.85-5,40-6.94,56.22-2,0,29.3,3.56,72.45,0,76s-423.62,0-423.62,0Z" transform="translate(0.55)"/><path class="cls-26" d="M447.87,424.86s161.69-38.55,425.2,5.29V636.33H447.87Z" transform="translate(0.55)"/><path class="cls-27" d="M447.87,538.73s217.89-32.32,425.2,0V637.8H447.87Z" transform="translate(0.55)"/><path class="cls-28" d="M804.12,599.35c13.29-27.37-18.77-39.88-23.46-12.51-18.38-9.69-13.3,17.2-13.3,17.2s-14.85-16.42-24.24,0,21.45,33.76,21.45,33.76H805.7C843.8,615.9,829.14,581.37,804.12,599.35Z" transform="translate(0.55)"/><line class="cls-29" x1="772.83" y1="599.13" x2="776.89" y2="619.51"/><polyline class="cls-29" points="758.47 607.03 787.55 626.72 794.05 588.22"/><line class="cls-29" x1="818.31" y1="607.47" x2="789.44" y2="615.52"/><path class="cls-30" d="M859.08,603.89c17.2-38.67-8.6-29.72-8.6-29.72s4.3-32.45-8.6-19.55c-13.12-31.64-43-12.24-20.58,28.11-5.67-4.79-35.12-4-6,25.07-13.29,13.29,17.2,29.71,17.2,29.71h21.9C879,612.88,868.46,603.89,859.08,603.89Z" transform="translate(0.55)"/><line class="cls-29" x1="827.19" y1="556.85" x2="846.59" y2="637.58"/><line class="cls-29" x1="814.46" y1="591.13" x2="838.17" y2="602.53"/><line class="cls-29" x1="827.19" y1="620.58" x2="843.83" y2="626.08"/><line class="cls-29" x1="843.83" y1="565.05" x2="833.81" y2="584.38"/><line class="cls-29" x1="856.29" y1="587.78" x2="841.2" y2="615.15"/><path class="cls-31" d="M489,599.17c15.64-8.61,18.77-24.25,4.69-21.12,7-20.33-20.33-21.89-27.37,15.64-25-11-18.42,44.11-18.42,44.11H477C506.09,630,509.3,599.17,489,599.17Z" transform="translate(0.55)"/><line class="cls-29" x1="484.71" y1="579.62" x2="460.4" y2="637.51"/><line class="cls-29" x1="459.24" y1="602.66" x2="468.53" y2="618.16"/><line class="cls-29" x1="488.35" y1="609.07" x2="471.78" y2="610.41"/><line class="cls-29" x1="494.41" y1="585.32" x2="480.57" y2="589.47"/><path class="cls-32" d="M547.23,605.75c11.55-11.55-12.51-31.64-22.34-5.84,0-24.24-38.65-16.42-26.92,5.48-25,3.91,1.73,32.41,1.73,32.41h45.67C585.72,615.81,563.66,595.8,547.23,605.75Z" transform="translate(0.55)"/><polyline class="cls-29" points="509.87 595.79 526.51 626.5 538.97 600.83"/><line class="cls-29" x1="497.14" y1="613.65" x2="518.19" y2="611.15"/><line class="cls-29" x1="552.82" y1="613.65" x2="532.75" y2="613.65"/><path class="cls-31" d="M493.36,274s-12.74,2.94-19.59-17.63-17.64-32.34,9.79-50,41.16,9.8,34.3,27.44S520.8,274,493.36,274Z" transform="translate(0.55)"/><line class="cls-29" x1="495.5" y1="215.77" x2="495.5" y2="299.7"/><line class="cls-29" x1="485.85" y1="253.87" x2="495.74" y2="263.76"/><line class="cls-29" x1="512.38" y1="224.93" x2="495.5" y2="241.81"/><path class="cls-30" d="M835.69,382.3s-12.74,2.94-19.6-17.63-17.64-32.34,9.8-50,41.15,9.8,34.29,27.44S863.12,382.3,835.69,382.3Z" transform="translate(0.55)"/><line class="cls-29" x1="837.82" y1="324.11" x2="837.82" y2="408.04"/><line class="cls-29" x1="828.17" y1="362.21" x2="838.06" y2="372.1"/><line class="cls-29" x1="854.7" y1="333.27" x2="837.82" y2="350.15"/><path class="cls-32" d="M675,273.64s-19.6,8.19-19.6-30.2,9.75-58,24.47-54.07S713.21,265.8,675,273.64Z" transform="translate(0.55)"/><line class="cls-29" x1="677.05" y1="205.6" x2="677.05" y2="299.96"/><line class="cls-29" x1="665.8" y1="247.87" x2="677.03" y2="259.1"/><line class="cls-29" x1="690.09" y1="225.2" x2="677.34" y2="237.95"/><line class="cls-29" x1="671.42" y1="217.96" x2="676.88" y2="223.42"/><path class="cls-30" d="M536.94,295.29s-35.27-4.06-35.27-27.58,24.49-21.56,24.49-35.27S568.3,203,568.3,249.09C568.3,272.61,586.92,295.29,536.94,295.29Z" transform="translate(0.55)"/><line class="cls-29" x1="541.66" y1="234.06" x2="541.66" y2="320.88"/><line class="cls-29" x1="520.91" y1="264.45" x2="541.54" y2="285.07"/><line class="cls-29" x1="556.61" y1="258.86" x2="541.77" y2="273.7"/><line class="cls-29" x1="534.42" y1="238.88" x2="541.66" y2="246.12"/><path class="cls-33" d="M773.36,309.46s-20.12,4.31-31.88-17.44,6.86-18.81,10.78-32.53,23.52-22.54,36.26,0S799.37,298.69,773.36,309.46Z" transform="translate(0.55)"/><line class="cls-29" x1="769.99" y1="256.13" x2="769.99" y2="340.07"/><line class="cls-29" x1="756.55" y1="283.63" x2="769.65" y2="296.73"/><line class="cls-29" x1="779.22" y1="271.67" x2="769.65" y2="281.24"/><path class="cls-34" d="M487.39,378.8s-20.13,4.3-31.88-17.45,6.85-18.81,10.77-32.53,23.52-22.54,36.26,0S513.39,368,487.39,378.8Z" transform="translate(0.55)"/><line class="cls-29" x1="484.01" y1="325.47" x2="484.01" y2="409.4"/><line class="cls-29" x1="470.58" y1="352.96" x2="483.68" y2="366.06"/><line class="cls-29" x1="493.25" y1="341" x2="483.68" y2="350.58"/><path class="cls-28" d="M705.93,325.94s-27.64,17.69-34.27-22.1,16-59.14,39.79-35.38S723.06,308.81,705.93,325.94Z" transform="translate(0.55)"/><line class="cls-29" x1="694.69" y1="274.69" x2="694.69" y2="361.52"/><line class="cls-29" x1="678.29" y1="287.72" x2="694.69" y2="304.12"/><line class="cls-29" x1="713.99" y1="297.46" x2="694.69" y2="316.75"/><line class="cls-29" x1="702.74" y1="282.25" x2="694.69" y2="290.29"/><path class="cls-35" d="M816.25,273.86s-27.64,17.69-34.27-22.1,16-59.14,39.79-35.38S833.38,256.73,816.25,273.86Z" transform="translate(0.55)"/><line class="cls-29" x1="805.01" y1="222.62" x2="805.01" y2="309.44"/><line class="cls-29" x1="788.61" y1="235.64" x2="805.01" y2="252.04"/><line class="cls-29" x1="824.31" y1="245.38" x2="805.01" y2="264.67"/><line class="cls-29" x1="813.06" y1="230.17" x2="805.01" y2="238.21"/><path class="cls-32" d="M603.38,344.08S575.74,361.76,569.11,322s16-59.14,39.79-35.37S620.51,326.94,603.38,344.08Z" transform="translate(0.55)"/><line class="cls-29" x1="592.14" y1="292.83" x2="592.14" y2="379.65"/><line class="cls-29" x1="575.74" y1="305.85" x2="592.14" y2="322.25"/><line class="cls-29" x1="611.44" y1="315.59" x2="592.14" y2="334.89"/><line class="cls-29" x1="600.19" y1="300.38" x2="592.14" y2="308.43"/><path class="cls-14" d="M596.46,65.46h97.89s-3.53-14.3-22.93-9.27c-22.67-17-44.1,3.07-44.1,3.07S615.69,51,596.46,65.46Z" transform="translate(0.55)"/><path class="cls-14" d="M766.91,35.43h82S840.11,16.5,817.18,26C793.37,17.1,766.91,35.43,766.91,35.43Z" transform="translate(0.55)"/><path class="cls-14" d="M474.6,37.64H609.94s-14.63-24.26-39-12.13c-31.7-19.62-47.55,1.33-47.55,1.33S501.42,18.17,474.6,37.64Z" transform="translate(0.55)"/></g><path class="cls-31" d="M735.09,445.79a17,17,0,0,1-4.35-13.43c1-8.16,10.75-3.48,10-12.05s5.7-19.24,14.51-10.42-4.8,17.51,1.14,21.51,7.43,9.14,1.14,14.39" transform="translate(0.55)"/><path class="cls-36" d="M749.54,411.9s-4.43,19.72-2.91,35.08" transform="translate(0.55)"/><line class="cls-36" x1="737.05" y1="433.99" x2="746.64" y2="441.49"/><line class="cls-36" x1="755.11" y1="433.99" x2="746.91" y2="437.23"/><line class="cls-36" x1="744.64" y1="416.06" x2="748.48" y2="420.81"/><path class="cls-14" d="M651.76,397.46c-5.65,6.87-16.17,17.22-26.08,23.57-7.94,5.08-18.74.38-20-9-1.56-11.57,6-23.49,24.2-26.37,29.36-5.39,34.66,3.82,34.66,3.82S660,387.48,651.76,397.46Z" transform="translate(0.55)"/><path class="cls-37" d="M695,452.16c-.81-6.07-11.12-13.18-23.62-19.68l-9.26,22.66,17.28,4.09-9.7,49.66,6,1.5S697.45,470.51,695,452.16Z" transform="translate(0.55)"/><path class="cls-6" d="M624.59,412.85s-29.71,24.36,8.58,35.43l29,6.86,9.26-22.66C650.91,421.84,624.59,412.85,624.59,412.85Z" transform="translate(0.55)"/><path class="cls-37" d="M681.8,367.06s1.27,1.82.52,7.29c.75,4.45,2.23,7.47-1,7-.65,4.71-2.87,6.84-11.05,5-6.5-1.44-7.37-11.75-3.25-18.93S679.58,361.45,681.8,367.06Z" transform="translate(0.55)"/><polygon class="cls-37" points="667 382.69 661.76 391.12 668.25 396.34 676.54 384.7 667 382.69"/><path class="cls-38" d="M669.7,508.89l5.71,1.5s8.49,1.51,8.49,8.49l-16.08-4.24Z" transform="translate(0.55)"/><circle class="cls-19" cx="588.79" cy="532.69" r="47.48" transform="translate(-203.66 572.36) rotate(-45)"/><path class="cls-20" d="M684,519.7l-16.73-4.25a.8.8,0,0,1-.57-1h0a.79.79,0,0,1,1-.57l16.74,4.25a.8.8,0,0,1,.57,1h0A.8.8,0,0,1,684,519.7Z" transform="translate(0.55)"/><circle class="cls-19" cx="732.15" cy="532.69" r="47.48" transform="matrix(0.99, -0.17, 0.17, 0.99, -77.5, 128.5)"/><polygon class="cls-19" points="657.61 532.69 589.35 532.69 623.48 470.19 709.79 470.19 732.7 532.69 657.61 532.69"/><path class="cls-19" d="M613.06,444.1l42.82,88.59,53.36-62.5-8.8-26.09s22.15-4.17,22.15,3.68-9.11,7.85-9.11,7.85" transform="translate(0.55)"/><path class="cls-20" d="M623.77,449.67H603.44a3.35,3.35,0,0,1-3.34-3.34h0a3.35,3.35,0,0,1,3.34-3.34h20.33a3.35,3.35,0,0,1,3.33,3.34h0A3.34,3.34,0,0,1,623.77,449.67Z" transform="translate(0.55)"/><path class="cls-37" d="M716.22,439.85s9.86,1.6,6.37,7.93a59.47,59.47,0,0,1-10.28-5.24Z" transform="translate(0.55)"/><path class="cls-39" d="M624.59,412.85s26.7-39.14,45.51-20.33c14.21,14.21-36.27,39.84-36.27,39.84Z" transform="translate(0.55)"/><path class="cls-20" d="M584.82,532.69a4,4,0,1,0,4-4A4,4,0,0,0,584.82,532.69Z" transform="translate(0.55)"/><path class="cls-14" d="M665.23,411.42l-1.37-1.09c5.24-6.55,7-11.93,5.33-16-2.73-6.54-13.71-7.76-13.82-7.77l.18-1.74c.49.05,12.12,1.33,15.26,8.83C672.78,398.36,670.9,404.34,665.23,411.42Z" transform="translate(0.55)"/><path class="cls-14" d="M647.26,418.76c-11.91,0-23-6.65-23.13-6.76l.92-1.49c1.15.7,28.24,17,42-4.24l1.47,1C662.81,416.06,654.85,418.76,647.26,418.76Z" transform="translate(0.55)"/><path class="cls-20" d="M728.17,532.69a4,4,0,1,0,4-4A4,4,0,0,0,728.17,532.69Z" transform="translate(0.55)"/><path class="cls-37" d="M674.78,427.33s-19.2-31-11.79-35.84,23.19,31.68,23.19,31.68l30,16.68L715.3,443S682.83,438.75,674.78,427.33Z" transform="translate(0.55)"/><polyline class="cls-19" points="634.38 550.75 656.43 532.69 676.42 516.8"/><path class="cls-38" d="M630.93,541.87l5.4,3.25s7.4,4.42,4.93,11l-13.53-9.66Z" transform="translate(0.55)"/><path class="cls-20" d="M640.53,556.25l-14.3-9.68a.8.8,0,0,1-.21-1.1h0a.8.8,0,0,1,1.11-.22l14.29,9.69a.79.79,0,0,1,.21,1.1h0A.79.79,0,0,1,640.53,556.25Z" transform="translate(0.55)"/><line class="cls-40" x1="666" y1="431.61" x2="657.01" y2="451.38"/><path class="cls-37" d="M652.58,442.77,626,456.14c9,10.89,22.6,22.45,22.6,22.45l-17.68,63.28,5.4,3.25s29.69-48.45,31.42-70.18C668.47,466,661.28,453.91,652.58,442.77Z" transform="translate(0.55)"/><path class="cls-6" d="M624.59,412.85s-20.18,6.54-17.09,25.23c1.38,8.35,5.83,20.39,12.27,28.18l32.81-23.49A268.3,268.3,0,0,0,624.59,412.85Z" transform="translate(0.55)"/><polygon class="cls-41" points="729.24 443.82 765.12 443.82 759.18 483.5 733.93 483.5 729.24 443.82"/><rect class="cls-41" x="729.24" y="443.82" width="35.88" height="6.34"/><path class="cls-42" d="M660.49,409.89l15.5-8.75s-9.6-15.07-15.81-11C652,395.51,660.49,409.89,660.49,409.89Z" transform="translate(0.55)"/><path class="cls-38" d="M666.4,385.22s-3.43-3-4.67-6.29-.78-10.29,1.43-12.49c-6.29-6.29-1.15-14,5.05-11.44,5.91-3.53,11.44-.57,9,5.72,7.25,2.67,10.68,9.91,4.48,13.35s-8.1,1.52-11.06,5.72C668.78,382.84,669.16,387.13,666.4,385.22Z" transform="translate(0.55)"/><path class="cls-37" d="M673.65,378.05a2.56,2.56,0,0,0-2.84-2.1c-2.61,0-2.27,5.22,1.42,6" transform="translate(0.55)"/><line class="cls-19" x1="708.67" y1="466.86" x2="766.93" y2="466.86"/><line class="cls-19" x1="711.47" y1="474.78" x2="764.04" y2="474.78"/><polyline class="cls-19" points="706.35 460 769.29 460 760.63 485.21 715.04 485.21 760.63 485.21 761.8 481.8 714.05 481.8"/><polygon class="cls-20" points="714.64 481.8 761.8 481.8 760.63 485.21 715.04 485.21 714.64 481.8"/><line class="cls-19" x1="724.37" y1="460.48" x2="724.37" y2="483.32"/><line class="cls-19" x1="751.8" y1="460.48" x2="751.8" y2="483.32"/><line class="cls-40" x1="617.1" y1="456.77" x2="644.79" y2="437.18"/><line class="cls-40" x1="731.6" y1="450.15" x2="762.1" y2="450.15"/><g class="cls-43"><rect class="cls-44" x="0.55" width="425.2" height="637.8"/><path class="cls-14" d="M112.91,203.94H210.8s-3.53-14.29-22.93-9.26c-22.67-17-44.09,3.06-44.09,3.06S132.14,189.49,112.91,203.94Z" transform="translate(0.55)"/><path class="cls-14" d="M266.53,234.56h82s-8.82-18.92-31.75-9.46C293,216.24,266.53,234.56,266.53,234.56Z" transform="translate(0.55)"/><path class="cls-45" d="M23,270.06S.38,251.6,10,227.52s-2.83-28.6,9-50.06,4.52-42.31,24.84-42.31,12.43,35.63,16.94,50.26S54,218.33,65.31,239.68s-6.78,30.38-6.78,30.38Z" transform="translate(0.55)"/><line class="cls-46" x1="41.72" y1="150.18" x2="41.72" y2="270.06"/><line class="cls-46" x1="25.35" y1="184.54" x2="41.47" y2="200.65"/><line class="cls-46" x1="54" y1="166.22" x2="41.47" y2="178.75"/><line class="cls-46" x1="54" y1="213.18" x2="41.38" y2="225.8"/><line class="cls-46" x1="17.17" y1="233.74" x2="41.47" y2="258.04"/><path class="cls-47" d="M305.19,281.48s-23.77-15.42-18.37-33.79,18.37-13,18.37-31.33,6.48-33.49,21.6-18.36-6.48,36.73,6.49,49.69-7.86,33.79-7.86,33.79Z" transform="translate(0.55)"/><line class="cls-46" x1="316.46" y1="206.96" x2="316.46" y2="281.48"/><line class="cls-46" x1="296.67" y1="251.47" x2="316.46" y2="270.9"/><line class="cls-46" x1="328.74" y1="251.47" x2="316.14" y2="264.07"/><line class="cls-46" x1="306.57" y1="236.64" x2="316.46" y2="246.54"/><line class="cls-46" x1="325.67" y1="220.26" x2="316.14" y2="229.79"/><line class="cls-46" x1="310.98" y1="214.12" x2="316.79" y2="219.93"/><line class="cls-46" x1="325.67" y1="203.89" x2="315.95" y2="213.61"/><path class="cls-45" d="M340,273s-22-16.38-12.43-38.4,3.06-24.75-2.42-46.25,25.57-8.51,21.62-26.58,8.19-28.51,15.25-21.46-.57,32.19,11.29,39,12.92,16.51,5.05,39S401,238.52,375.6,273Z" transform="translate(0.55)"/><line class="cls-46" x1="355.78" y1="156.31" x2="355.78" y2="272.43"/><line class="cls-46" x1="335.05" y1="181.65" x2="356" y2="202.61"/><line class="cls-46" x1="375.97" y1="195.13" x2="355.78" y2="215.33"/><line class="cls-46" x1="334.46" y1="236.64" x2="355.78" y2="257.96"/><line class="cls-46" x1="370.86" y1="233.57" x2="355.71" y2="248.72"/><path class="cls-48" d="M410.48,226.46c-12.82-12.83-2.25-60.41-7.9-66.06s-20.33-6.77-20.33,18.68-7.9,16.89-18.06,42.1,18.63,42.55,18.63,42.55h15.81C411.05,257.51,423.31,239.29,410.48,226.46Z" transform="translate(0.55)"/><line class="cls-46" x1="392.28" y1="170.12" x2="392.28" y2="263.73"/><line class="cls-46" x1="373.35" y1="227.6" x2="392.2" y2="246.45"/><line class="cls-46" x1="381.02" y1="205.5" x2="392.2" y2="216.68"/><line class="cls-46" x1="402" y1="227.6" x2="392.2" y2="237.4"/><path class="cls-14" d="M73.5,229.28h82s-8.82-18.92-31.75-9.46C100,211,73.5,229.28,73.5,229.28Z" transform="translate(0.55)"/><path class="cls-14" d="M73.25,31.4h50s-5.87-9.64-22.19-4.82C85.06,17.16,73.25,31.4,73.25,31.4Z" transform="translate(0.55)"/><path class="cls-14" d="M251.89,56.23H387.22S372.59,32,348.21,44.1c-31.7-19.63-47.55,1.32-47.55,1.32S278.71,36.75,251.89,56.23Z" transform="translate(0.55)"/><path class="cls-47" d="M85.77,205.6C75.52,195.35,86.91,164.05,75,164.05s-17.65,17.64-23.34,51.79,12.52,62.61,12.52,62.61h14.8C96,261.37,96,215.84,85.77,205.6Z" transform="translate(0.55)"/><line class="cls-46" x1="72.19" y1="179.92" x2="72.19" y2="278.45"/><line class="cls-46" x1="57.32" y1="236.78" x2="72.19" y2="251.65"/><line class="cls-46" x1="84.44" y1="220.75" x2="72.19" y2="233"/><line class="cls-46" x1="61.42" y1="199.86" x2="72.16" y2="210.6"/><rect class="cls-49" x="0.88" y="305.89" width="424.53" height="220.47"/><path class="cls-14" d="M0,234.93s34.75-2,89.72,15.73A513.16,513.16,0,0,0,367.4,261.52c20.85-5,40-6.94,56.21-2,0,29.3,3.57,72.45,0,76S0,335.49,0,335.49Z" transform="translate(0.55)"/><path class="cls-14" d="M0,428.3s161.68-38.19,425.2,5.24V637.8H0Z" transform="translate(0.55)"/><path class="cls-50" d="M0,353.72s122.39-7.8,127.39,11.94S46.83,380.25,63.69,391,0,406,0,406Z" transform="translate(0.55)"/><path class="cls-50" d="M268.53,369.42c28.51,18.78,176.82-9.17,138.34,31.39-4.12,4.34,4.35,7.11,18.33,8.6V348.79C357.82,349.2,242.62,352.34,268.53,369.42Z" transform="translate(0.55)"/><path class="cls-45" d="M0,496.08s48-20,162.93-7.75c116.62,12.45,167.35,21.31,262.27-4.52v67.81H0Z" transform="translate(0.55)"/><path class="cls-51" d="M0,540.2s217.88-32.33,425.2,0v97.6H0Z" transform="translate(0.55)"/><path class="cls-48" d="M397.2,603c13.29-27.37-18.77-39.89-23.46-12.52-18.38-9.69-13.29,17.21-13.29,17.21s-14.86-16.42-24.24,0,20.33,30.06,20.33,30.06l50,.07C444.62,615.9,422.22,585,397.2,603Z" transform="translate(0.55)"/><line class="cls-46" x1="365.92" y1="602.75" x2="369.98" y2="623.13"/><polyline class="cls-46" points="351.56 610.66 380.63 630.35 387.14 591.84"/><line class="cls-46" x1="411.39" y1="611.09" x2="382.53" y2="619.15"/><path class="cls-52" d="M55.89,604.11c17.2-38.67-8.6-29.72-8.6-29.72s4.3-32.45-8.6-19.55C25.57,523.2-4.31,542.6,18.11,583c-5.67-4.79-35.12-4-6,25.07-13.29,13.29,17.2,29.71,17.2,29.71H51.2C75.83,613.1,65.27,604.11,55.89,604.11Z" transform="translate(0.55)"/><line class="cls-46" x1="24" y1="557.07" x2="43.4" y2="637.8"/><line class="cls-46" x1="11.27" y1="591.35" x2="34.98" y2="602.75"/><line class="cls-46" x1="24" y1="620.8" x2="40.64" y2="626.3"/><line class="cls-46" x1="40.64" y1="565.27" x2="30.62" y2="584.6"/><line class="cls-46" x1="53.1" y1="588" x2="38.01" y2="615.37"/><path class="cls-53" d="M337.3,600.33c15.63-8.6,18.76-24.24,4.69-21.11,7-20.34-20.33-21.9-27.37,15.64-25-11-18.9,42.94-18.9,42.94l26.45-.07C351.23,629.91,357.63,600.33,337.3,600.33Z" transform="translate(0.55)"/><line class="cls-46" x1="333.03" y1="580.78" x2="308.35" y2="639.59"/><line class="cls-46" x1="307.57" y1="603.82" x2="316.86" y2="619.32"/><line class="cls-46" x1="336.67" y1="610.24" x2="320.11" y2="611.57"/><line class="cls-46" x1="342.74" y1="586.48" x2="328.9" y2="590.63"/><path class="cls-47" d="M114.72,607.41c11.54-11.55-12.52-31.64-22.35-5.84,0-24.24-38.65-16.42-26.92,5.48-25,3.91-1.65,30.75-1.65,30.75h54C146.66,627.28,131.14,597.46,114.72,607.41Z" transform="translate(0.55)"/><polyline class="cls-46" points="77.35 597.45 93.99 628.16 106.45 602.49"/><line class="cls-46" x1="64.62" y1="615.31" x2="85.67" y2="612.81"/><line class="cls-46" x1="120.3" y1="615.31" x2="100.23" y2="615.31"/></g><path class="cls-18" d="M233,367.06s1.28,1.82.53,7.29c.74,4.45,2.23,7.47-1,7-.65,4.71-2.87,6.84-11,5-6.5-1.44-7.37-11.75-3.25-18.93S230.8,361.45,233,367.06Z" transform="translate(0.55)"/><polygon class="cls-18" points="219.13 382.69 213.88 391.12 220.37 396.34 229.01 384.23 219.13 382.69"/><path class="cls-54" d="M183.06,541.87l5.39,3.25s7.41,4.42,4.94,11l-13.54-9.66Z" transform="translate(0.55)"/><path class="cls-55" d="M191.39,409.66s-20.81,5.77-17.72,24.46c3.32,20,24.85,46.69,24.85,46.69l-15.46,61.06,5.39,3.25s29.69-48.45,31.43-70.18S191.39,409.66,191.39,409.66Z" transform="translate(0.55)"/><circle class="cls-56" cx="140.92" cy="532.69" r="47.48" transform="translate(-118.06 46.63) rotate(-13.28)"/><circle class="cls-56" cx="284.28" cy="532.69" r="47.48" transform="translate(-292.85 357.04) rotate(-45)"/><polygon class="cls-56" points="209.73 532.69 141.47 532.69 178.35 470.19 261.92 470.19 284.83 532.69 209.73 532.69"/><path class="cls-56" d="M165.19,444.1,208,532.69l53.35-62.5-7.23-26.09s20.58-4.17,20.58,3.68-9.1,7.85-9.1,7.85" transform="translate(0.55)"/><path class="cls-57" d="M175.89,449.67H155.56a3.34,3.34,0,0,1-3.33-3.34h0a3.35,3.35,0,0,1,3.33-3.34h20.33a3.35,3.35,0,0,1,3.34,3.34h0A3.35,3.35,0,0,1,175.89,449.67Z" transform="translate(0.55)"/><path class="cls-18" d="M268.34,439.85s9.87,1.6,6.37,7.93a59.21,59.21,0,0,1-10.27-5.24Z" transform="translate(0.55)"/><path class="cls-58" d="M176.72,412.85s26.7-39.14,45.51-20.33c14.2,14.21-28,39.84-28,39.84Z" transform="translate(0.55)"/><path class="cls-54" d="M221.83,508.89l5.71,1.5s8.49,1.51,8.49,8.49L220,514.64Z" transform="translate(0.55)"/><path class="cls-59" d="M176.72,412.85s-29.72,24.36,8.57,35.43l46.24,11-9.7,49.66,6,1.5s19.32-39.72,19.32-58.23S176.72,412.85,176.72,412.85Z" transform="translate(0.55)"/><path class="cls-57" d="M136.94,532.69a4,4,0,1,0,4-4A4,4,0,0,0,136.94,532.69Z" transform="translate(0.55)"/><path class="cls-57" d="M280.3,532.69a4,4,0,1,0,4-4A4,4,0,0,0,280.3,532.69Z" transform="translate(0.55)"/><path class="cls-58" d="M226.9,427.33s-19.2-31-11.78-35.84,23.19,31.68,23.19,31.68l30,16.68-1.8,4S235,438.75,226.9,427.33Z" transform="translate(0.55)"/><path class="cls-57" d="M236.16,519.7l-16.73-4.25a.81.81,0,0,1-.58-1h0a.8.8,0,0,1,1-.57l16.73,4.25a.8.8,0,0,1,.58,1h0A.8.8,0,0,1,236.16,519.7Z" transform="translate(0.55)"/><path class="cls-57" d="M192.65,556.25l-14.29-9.68a.79.79,0,0,1-.21-1.1h0a.79.79,0,0,1,1.1-.22l14.3,9.69a.8.8,0,0,1,.21,1.1h0A.8.8,0,0,1,192.65,556.25Z" transform="translate(0.55)"/><polyline class="cls-56" points="186.51 550.75 208.56 532.69 228.54 516.8"/><path class="cls-54" d="M210.79,387.17s2.2-3,7.45-1.12,13.38,15.4,20.66,36.54c12.3,6.81,27.71,15.17,27.71,15.17l-3.46,8.57s-22.22-7.25-32.37-13-12.42-19.23-12.42-19.23S207.85,426.54,194.48,430s-30.34-11.35-41.33-10.51C158.53,403.84,201.32,383.86,210.79,387.17Z" transform="translate(0.55)"/><path class="cls-57" d="M219.26,385.42s-4-.87-5.85-6.15-.34-13.13,5.85-17.15c5-3.83,16.42-3,16.42,7.35,0,2.64-6.75,3.25-6.75,3.25S222.48,386.23,219.26,385.42Z" transform="translate(0.55)"/><path class="cls-18" d="M227.14,376.12a2.56,2.56,0,0,0-2.84-2.1c-2.61,0-2.27,5.22,1.42,6" transform="translate(0.55)"/><path class="cls-57" d="M212.67,385.84s-.12-3,1.59-4.69c7.06.74,21,5,13.1,15.19C221.65,385.42,212.67,385.84,212.67,385.84Z" transform="translate(0.55)"/><path class="cls-57" d="M214.87,383.87s-8.77,5-23,0-32.39-6.72-40.7,1.58c5.13,1.4,6,7.85,6,7.85s15.05-10.06,30.6-3.79,29.45-5.14,29.45-5.14" transform="translate(0.55)"/><path class="cls-60" d="M159.45,412.85s9.61-1.19,19.78,5.93,19.1,7.94,19.1,7.94" transform="translate(0.55)"/><text class="cls-61" transform="translate(217.16 393.95) rotate(102.19)">L</text><text class="cls-61" transform="translate(215.94 400.87) rotate(85.45)">o</text><text class="cls-61" transform="translate(216.68 408.1) rotate(78.03)">r</text><g class="cls-62"><rect class="cls-63" x="1344.17" width="425.2" height="637.8"/><path class="cls-64" d="M1343.62,246.34s34.75-2,89.72,15.73A513,513,0,0,0,1711,272.93c20.85-5,40-6.94,56.21-2,0,29.29,3.57,72.45,0,76s-423.61,0-423.61,0Z" transform="translate(0.55)"/><rect class="cls-65" x="1344.17" y="241.46" width="424.53" height="212.27"/><path class="cls-66" d="M1343.62,427.91s161.68-38,425.2,5.21V636.33h-425.2Z" transform="translate(0.55)"/><path class="cls-67" d="M1343.62,540.2s217.88-32.33,425.2,0v97.6h-425.2Z" transform="translate(0.55)"/><path class="cls-68" d="M1398.9,605.94c-13.29-27.37,18.77-39.88,23.46-12.52,18.38-9.69,13.29,17.21,13.29,17.21s14.86-16.42,24.25,0-25.54,27.88-25.54,27.88l-42.54-.71C1353.73,615.9,1373.88,588,1398.9,605.94Z" transform="translate(0.55)"/><line class="cls-29" x1="1431.29" y1="605.71" x2="1427.23" y2="626.09"/><polyline class="cls-29" points="1445.65 613.62 1416.57 633.3 1410.07 594.8"/><line class="cls-29" x1="1385.81" y1="614.05" x2="1414.68" y2="622.11"/><path class="cls-69" d="M1358.5,617.35c-17.2-38.67,8.6-29.71,8.6-29.71s-4.3-32.46,8.6-19.55c13.12-31.65,43-12.25,20.58,28.11,5.67-4.79,35.12-4.05,6,25.06,13.29,13.29-17.2,29.72-17.2,29.72h-21.9C1338.56,626.34,1349.12,617.35,1358.5,617.35Z" transform="translate(0.55)"/><line class="cls-29" x1="1391.5" y1="570.31" x2="1372.09" y2="651.04"/><line class="cls-29" x1="1404.23" y1="604.59" x2="1380.52" y2="615.99"/><line class="cls-29" x1="1391.5" y1="634.04" x2="1374.86" y2="639.55"/><line class="cls-29" x1="1374.86" y1="578.52" x2="1384.88" y2="597.84"/><line class="cls-29" x1="1362.39" y1="601.24" x2="1377.48" y2="628.61"/><path class="cls-69" d="M1737.37,599.11c17.2-38.66-8.6-29.71-8.6-29.71s4.3-32.45-8.6-19.55c-13.13-31.65-43-12.25-20.58,28.11-5.67-4.79-35.12-4-6,25.06-13.3,13.3,17.2,34.78,17.2,34.78H1734C1758.66,613.16,1746.75,599.11,1737.37,599.11Z" transform="translate(0.55)"/><line class="cls-29" x1="1705.48" y1="552.07" x2="1724.88" y2="632.8"/><line class="cls-29" x1="1692.74" y1="586.35" x2="1716.46" y2="597.76"/><line class="cls-29" x1="1705.48" y1="615.81" x2="1722.12" y2="621.31"/><line class="cls-29" x1="1722.12" y1="560.28" x2="1712.1" y2="579.61"/><line class="cls-29" x1="1734.58" y1="583" x2="1719.49" y2="610.37"/><path class="cls-68" d="M1734.89,593.07c-9.2-15.3-4-30.39,6.56-20.62,4.13-21.11,28.58-8.71,15.8,27.28,27.14,3.11-1.74,38.78-1.74,38.78L1734,637.8C1712.83,616.43,1717.32,582.85,1734.89,593.07Z" transform="translate(0.55)"/><line class="cls-29" x1="1749.43" y1="578.59" x2="1742.58" y2="631.4"/><line class="cls-29" x1="1759.87" y1="611.3" x2="1744.05" y2="620.03"/><line class="cls-29" x1="1731.48" y1="602.22" x2="1745.13" y2="611.7"/><line class="cls-29" x1="1738.18" y1="578.64" x2="1748.06" y2="589.18"/><path class="cls-70" d="M1641.38,606.09c-11.55-11.55,12.51-31.64,22.35-5.83,0-24.24,38.65-16.42,26.92,5.47,25,3.91,3,32.07,3,32.07h-53C1611.78,627.28,1625,596.14,1641.38,606.09Z" transform="translate(0.55)"/><polyline class="cls-29" points="1679.85 596.13 1663.21 626.85 1650.75 601.18"/><line class="cls-29" x1="1692.58" y1="613.99" x2="1671.53" y2="611.49"/><line class="cls-29" x1="1636.91" y1="613.99" x2="1656.97" y2="613.99"/><path class="cls-14" d="M1499,195h112s-7.94-20.46-30.87-10.23c-30-20.55-49.1-1.43-49.1-1.43S1521.93,172,1499,195Z" transform="translate(0.55)"/><path class="cls-14" d="M1679.24,60.08h97.89s-3.52-14.3-22.93-9.27c-22.67-17-44.09,3.07-44.09,3.07S1698.47,45.63,1679.24,60.08Z" transform="translate(0.55)"/><path class="cls-14" d="M1313.32,58.08h82s-8.81-18.93-31.74-9.47C1339.77,39.75,1313.32,58.08,1313.32,58.08Z" transform="translate(0.55)"/><path class="cls-68" d="M1716,297.08s12.74,2.94,19.6-17.64,17.63-32.34-9.8-50-41.16,9.79-34.3,27.43S1688.54,297.08,1716,297.08Z" transform="translate(0.55)"/><line class="cls-29" x1="1714.95" y1="238.88" x2="1714.95" y2="322.81"/><line class="cls-29" x1="1724.6" y1="276.99" x2="1714.71" y2="286.88"/><line class="cls-29" x1="1698.07" y1="248.05" x2="1714.95" y2="264.93"/><path class="cls-70" d="M1373.66,392.62s12.73,2.94,19.59-17.64,17.64-32.33-9.8-50-41.15,9.8-34.29,27.44S1346.22,392.62,1373.66,392.62Z" transform="translate(0.55)"/><line class="cls-29" x1="1372.63" y1="334.43" x2="1372.63" y2="418.36"/><line class="cls-29" x1="1382.27" y1="372.53" x2="1372.39" y2="382.42"/><line class="cls-29" x1="1355.74" y1="343.59" x2="1372.63" y2="360.47"/><path class="cls-71" d="M1534.35,296.76S1554,305,1554,266.55s-9.75-58-24.47-54.06S1496.14,288.92,1534.35,296.76Z" transform="translate(0.55)"/><line class="cls-29" x1="1533.4" y1="228.71" x2="1533.4" y2="323.08"/><line class="cls-29" x1="1544.65" y1="270.98" x2="1533.41" y2="282.21"/><line class="cls-29" x1="1520.36" y1="248.31" x2="1533.11" y2="261.06"/><line class="cls-29" x1="1539.03" y1="241.08" x2="1533.57" y2="246.54"/><path class="cls-70" d="M1672.4,318.41s35.28-4.07,35.28-27.58-24.5-21.56-24.5-35.28S1641,226.15,1641,272.21C1641,295.73,1622.43,318.41,1672.4,318.41Z" transform="translate(0.55)"/><line class="cls-29" x1="1668.79" y1="257.17" x2="1668.79" y2="344"/><line class="cls-29" x1="1689.53" y1="287.56" x2="1668.91" y2="308.18"/><line class="cls-29" x1="1653.84" y1="281.98" x2="1668.67" y2="296.81"/><line class="cls-29" x1="1676.03" y1="262" x2="1668.79" y2="269.23"/><path class="cls-68" d="M1436,332.58s20.12,4.31,31.88-17.45-6.86-18.81-10.78-32.53-23.51-22.53-36.25,0S1410,321.8,1436,332.58Z" transform="translate(0.55)"/><line class="cls-29" x1="1440.46" y1="279.25" x2="1440.46" y2="363.18"/><line class="cls-29" x1="1453.9" y1="306.74" x2="1440.8" y2="319.84"/><line class="cls-29" x1="1431.22" y1="294.79" x2="1440.8" y2="304.36"/><path class="cls-69" d="M1722,393s20.12,4.31,31.88-17.44S1747,356.72,1743.06,343s-23.52-22.54-36.26,0S1696,382.19,1722,393Z" transform="translate(0.55)"/><line class="cls-29" x1="1726.44" y1="339.64" x2="1726.44" y2="423.58"/><line class="cls-29" x1="1739.87" y1="367.14" x2="1726.77" y2="380.24"/><line class="cls-29" x1="1717.2" y1="355.18" x2="1726.77" y2="364.75"/><path class="cls-67" d="M1503.42,349.06s27.63,17.68,34.26-22.11-16-59.14-39.79-35.37S1486.28,331.92,1503.42,349.06Z" transform="translate(0.55)"/><line class="cls-29" x1="1515.75" y1="297.81" x2="1515.75" y2="384.63"/><line class="cls-29" x1="1532.15" y1="310.83" x2="1515.75" y2="327.23"/><line class="cls-29" x1="1496.46" y1="320.57" x2="1515.75" y2="339.87"/><line class="cls-29" x1="1507.71" y1="305.36" x2="1515.75" y2="313.41"/><path class="cls-69" d="M1393.1,297s27.63,17.68,34.26-22.11-16-59.14-39.79-35.37S1376,279.85,1393.1,297Z" transform="translate(0.55)"/><line class="cls-29" x1="1405.43" y1="245.73" x2="1405.43" y2="332.56"/><line class="cls-29" x1="1421.83" y1="258.75" x2="1405.43" y2="275.15"/><line class="cls-29" x1="1386.14" y1="268.49" x2="1405.43" y2="287.79"/><line class="cls-29" x1="1397.39" y1="253.28" x2="1405.43" y2="261.33"/><path class="cls-71" d="M1606,367.19s27.63,17.69,34.26-22.11-16-59.13-39.79-35.37S1588.83,350.06,1606,367.19Z" transform="translate(0.55)"/><line class="cls-29" x1="1618.3" y1="315.94" x2="1618.3" y2="402.77"/><line class="cls-29" x1="1634.7" y1="328.97" x2="1618.3" y2="345.37"/><line class="cls-29" x1="1599.01" y1="338.71" x2="1618.3" y2="358"/><line class="cls-29" x1="1610.26" y1="323.5" x2="1618.3" y2="331.54"/><path class="cls-14" d="M1597.23,44h82s-8.82-18.92-31.75-9.46C1623.68,25.64,1597.23,44,1597.23,44Z" transform="translate(0.55)"/><path class="cls-14" d="M1593.1,213.4h50s-5.87-9.64-22.19-4.82C1604.91,199.16,1593.1,213.4,1593.1,213.4Z" transform="translate(0.55)"/><path class="cls-14" d="M1360.6,103.5h50s-5.87-9.64-22.19-4.82C1372.41,89.26,1360.6,103.5,1360.6,103.5Z" transform="translate(0.55)"/></g><path class="cls-72" d="M1532,410.76s-17.82,4.67-14.73,23.36c3.32,20,24.85,46.69,24.85,46.69l-6.21,32.89-9.25,28.17,5.39,3.25s7.62-12.43,15.36-27.52c7.55-14.71,15.21-31.94,16.07-42.66C1565.24,453.22,1532,410.76,1532,410.76Z" transform="translate(0.55)"/><path class="cls-18" d="M1577.54,368.31s1.28,1.82.53,7.29c.74,4.45,2.23,7.47-1,7-.65,4.71-2.87,6.84-11,5-6.5-1.44-7.37-11.75-3.25-18.93S1575.33,362.71,1577.54,368.31Z" transform="translate(0.55)"/><polygon class="cls-18" points="1562.75 382.69 1557.5 391.12 1563.99 396.34 1570.23 387.59 1562.75 382.69"/><path class="cls-73" d="M1526.68,541.87l5.39,3.25s7.41,4.42,4.94,11l-13.53-9.66Z" transform="translate(0.55)"/><circle class="cls-19" cx="1484.54" cy="532.69" r="47.48" transform="translate(-81.27 347.95) rotate(-13.01)"/><circle class="cls-19" cx="1627.9" cy="532.69" r="47.48" transform="translate(100.68 1307.12) rotate(-45)"/><polygon class="cls-19" points="1553.35 532.69 1485.09 532.69 1521.97 470.19 1605.54 470.19 1628.45 532.69 1553.35 532.69"/><path class="cls-19" d="M1508.81,444.1l42.82,88.59,53.35-62.5-8.79-26.09s22.14-4.17,22.14,3.68-9.1,7.85-9.1,7.85" transform="translate(0.55)"/><path class="cls-20" d="M1519.51,449.67h-20.32a3.35,3.35,0,0,1-3.34-3.34h0a3.35,3.35,0,0,1,3.34-3.34h20.32a3.35,3.35,0,0,1,3.34,3.34h0A3.35,3.35,0,0,1,1519.51,449.67Z" transform="translate(0.55)"/><path class="cls-18" d="M1612,439.85s9.87,1.6,6.37,7.93a59.21,59.21,0,0,1-10.27-5.24Z" transform="translate(0.55)"/><path class="cls-73" d="M1549,516l5.39,2.4s8.14,2.87,7,9.75l-15.19-6.77Z" transform="translate(0.55)"/><path class="cls-20" d="M1480.56,532.69a4,4,0,1,0,4-4A4,4,0,0,0,1480.56,532.69Z" transform="translate(0.55)"/><path class="cls-20" d="M1623.92,532.69a4,4,0,1,0,4-4A4,4,0,0,0,1623.92,532.69Z" transform="translate(0.55)"/><path class="cls-20" d="M1561.4,529l-15.83-6.88a.81.81,0,0,1-.41-1.05h0a.8.8,0,0,1,1-.41L1562,527.5a.8.8,0,0,1,.41,1h0A.79.79,0,0,1,1561.4,529Z" transform="translate(0.55)"/><path class="cls-20" d="M1536.27,556.25,1522,546.57a.79.79,0,0,1-.21-1.1h0a.79.79,0,0,1,1.1-.22l14.3,9.69a.8.8,0,0,1,.21,1.1h0A.8.8,0,0,1,1536.27,556.25Z" transform="translate(0.55)"/><polyline class="cls-19" points="1530.13 550.75 1552.18 532.69 1554.36 524.79"/><path class="cls-74" d="M1519.91,414s-33.24,19.27,2.77,36.34l40.3,16.76-6,27.44L1549,516l5.66,2.45s7.5-10.64,14.83-23.28c6.17-10.65,12.24-22.73,13.6-31.08C1586.06,445.8,1519.91,414,1519.91,414Z" transform="translate(0.55)"/><path class="cls-75" d="M1565.85,392.52c-9.47-9.46-21-4-30.2,3.82h0s-25.91,20-34.22,35.12c18.9,14.09,48.09-1.24,48.09-1.24l11.15-16.94C1567.61,406.42,1572,398.65,1565.85,392.52Z" transform="translate(0.55)"/><path class="cls-75" d="M1570.53,427.33s-27.16-28.84-11.79-35.84c8-3.67,23.19,31.68,23.19,31.68l30,16.68L1611,443S1578.58,438.75,1570.53,427.33Z" transform="translate(0.55)"/><path class="cls-73" d="M1562.29,387.48s-4-.87-5.84-6.14a15.1,15.1,0,0,1,5.84-17.15c5-3.84,16.42-3,16.42,7.35,0,2.63-6.75,3.24-6.75,3.24S1565.51,388.3,1562.29,387.48Z" transform="translate(0.55)"/><path class="cls-18" d="M1570.17,378.18a2.56,2.56,0,0,0-2.84-2.1c-2.61,0-2.27,5.22,1.42,6" transform="translate(0.55)"/><path class="cls-73" d="M1569.68,376.57s1.63,5.63-1.66,13.35c4,4,8,1.55,9.23-2.4s.3-4.85.3-4.85-6.91-.06-6.1-6.85" transform="translate(0.55)"/><path class="cls-60" d="M1561.51,392s-10.54,3.56-2.38,20.52" transform="translate(0.55)"/></g></g></svg>